<?xml version="1.0" encoding="utf-8"?>
<!-- Generator: Adobe Illustrator 19.0.0, SVG Export Plug-In . SVG Version: 6.00 Build 0)  -->
<svg version="1.1" id="Capa_1" xmlns="http://www.w3.org/2000/svg" xmlns:xlink="http://www.w3.org/1999/xlink" x="0px" y="0px"
	 viewBox="633 179.1 1861.1 484.8" style="enable-background:new 633 179.1 1861.1 484.8;" xml:space="preserve">
<style type="text/css">
	.st0{fill:#AE84FD;}
	.st1{fill:#2D1217;}
	.st2{fill:#FFFFFF;}
	.st3{fill:#FFDA57;}
	.st4{fill:#FFDA57;stroke:#FFFFFF;stroke-width:1.8657;stroke-linecap:round;stroke-linejoin:round;stroke-miterlimit:10;}
</style>
<g>
	<polygon class="st0" points="1080.9,345.5 1080.9,456.4 944.2,456.4 944.2,593.1 833.3,593.1 833.3,456.4 696.6,456.4 696.6,345.5 
		833.3,345.5 833.3,208.8 944.2,208.8 944.2,345.5 	"/>
	<path class="st0" d="M962.5,327.2V193.9H815v133.3H681.7v147.5H815V608h147.5V474.7h133.3V327.2H962.5z M1088.1,467.8H955.6v132.5
		H821.9V467.8H689.4V334.1h132.5V201.6h133.7v132.5h132.5V467.8z"/>
</g>
<g id="Capa_8_copia_12">
	<path class="st0" d="M1456.4,323.3h43.3l69.1,200.3h-38.7l-14.6-40.7h-77.2l-15.1,40.7h-37.3L1456.4,323.3z M1504.8,450.5l-28.3-98
		l-28,98H1504.8z"/>
	<path class="st0" d="M1522.2,323.3h37.2l44.6,142.1c0.5,1.7,3,1.7,3.5,0l41.1-142.1h36.6l-60.1,200.3h-39.7L1522.2,323.3z"/>
	<path class="st0" d="M1691.2,323.3h37.1v200.3h-37.1V323.3z"/>
	<path class="st0" d="M1783.9,409.8h20.6l24.7,78.9l23.8-78.9h20.7l-36.9,113.3h-16.9L1783.9,409.8z"/>
	<path class="st0" d="M1934.6,498.4c-1.2,8.4-4.2,15.1-9,19.9s-11.7,7.3-20.7,7.3c-10.6,0-18.7-4-24.4-12.1
		c-5.7-8.1-8.5-19.3-8.5-33.7c0-7.5,0.8-14.2,2.4-20.1s3.9-10.8,6.8-14.7c2.9-3.9,6.4-7,10.5-9c4-2.1,8.5-3.1,13.2-3.1
		c5.4,0,10,1.1,13.9,3.2s7,5.1,9.5,8.9s4.3,8.3,5.5,13.4c1.2,5.2,1.8,10.9,1.8,17.1v7.4h-51.7c0,4.4,0.5,8.5,1.4,12.2
		c0.9,3.8,2.3,7,4,9.8c1.8,2.8,3.9,4.9,6.5,6.5c2.6,1.6,5.6,2.4,9,2.4c5.8,0,10.1-1.4,12.8-4.1c2.7-2.8,4.5-6.5,5.5-11.2
		L1934.6,498.4L1934.6,498.4z M1924,471.9c0-4.2-0.4-7.9-1.1-11.3s-1.8-6.3-3.4-8.7c-1.5-2.4-3.5-4.3-5.9-5.7c-2.4-1.4-5.4-2-8.8-2
		c-6.2,0-11,2.4-14.5,7.1s-5.5,11.6-6.1,20.6H1924z"/>
	<path class="st0" d="M2055.8,498.4c-1.2,8.4-4.2,15.1-9,19.9c-4.8,4.8-11.7,7.3-20.7,7.3c-10.6,0-18.7-4-24.4-12.1
		c-5.7-8.1-8.5-19.3-8.5-33.7c0-7.5,0.8-14.2,2.4-20.1s3.9-10.8,6.8-14.7c2.9-3.9,6.4-7,10.5-9c4-2.1,8.5-3.1,13.2-3.1
		c5.4,0,10,1.1,13.9,3.2s7,5.1,9.5,8.9s4.3,8.3,5.5,13.4c1.2,5.2,1.8,10.9,1.8,17.1v7.4H2005c0,4.4,0.5,8.5,1.4,12.2
		c0.9,3.8,2.3,7,4,9.8c1.8,2.8,3.9,4.9,6.5,6.5c2.6,1.6,5.6,2.4,9,2.4c5.8,0,10.1-1.4,12.8-4.1c2.7-2.8,4.5-6.5,5.5-11.2
		L2055.8,498.4L2055.8,498.4z M2045.2,471.9c0-4.2-0.4-7.9-1.1-11.3s-1.8-6.3-3.4-8.7c-1.5-2.4-3.5-4.3-5.9-5.7s-5.4-2-8.8-2
		c-6.2,0-11,2.4-14.5,7.1s-5.5,11.6-6.1,20.6H2045.2z"/>
	<path class="st0" d="M1955.1,448.2h-12.7v-11.5h12.7v-23.6h13.8v23.6h21.7v11.5h-21.7v50.7c0,4.2,0.9,7.6,2.7,10.2
		c1.8,2.6,4.5,3.8,8.3,3.8c2.3,0,4.4-0.2,6.1-0.5s3.4-0.8,4.8-1.3l2.4,11.2c-2.1,0.8-4.4,1.4-6.9,1.9s-5.4,0.8-8.8,0.8
		c-4.7,0-8.4-0.7-11.3-2.2c-2.9-1.4-5.1-3.5-6.8-6.2c-1.7-2.7-2.8-5.9-3.4-9.5c-0.6-3.7-0.9-7.7-0.9-12L1955.1,448.2L1955.1,448.2z"
		/>
	<path class="st0" d="M2323.3,436.1h14.5v13.5c3.3-4.8,7.1-8.5,11.4-11.1c4.4-2.6,9-3.9,14-3.9c3,0,5.6,0.2,7.7,0.7l-1.9,13.6
		c-1.1-0.2-2.2-0.4-3.4-0.6c-1.1-0.2-2.4-0.3-3.7-0.3c-2.7,0-5.4,0.5-8.2,1.4c-2.8,1-5.4,2.6-7.9,4.8c-2.5,2.1-4.4,4.6-5.8,7.4
		s-2.1,6.1-2.1,9.8v51.7h-14.6V436.1z"/>
	<path class="st0" d="M2376.3,400.9h15.9v17.3h-15.9V400.9z M2376.8,434.6h14.9v88.5h-14.9V434.6z"/>
	<path class="st0" d="M2072.5,436.1h14.5v13.5c3.3-4.8,7.1-8.5,11.4-11.1c4.4-2.6,9-3.9,14-3.9c3,0,5.6,0.2,7.7,0.7l-1.9,13.6
		c-1.1-0.2-2.2-0.4-3.4-0.6c-1.1-0.2-2.4-0.3-3.7-0.3c-2.7,0-5.4,0.5-8.2,1.4c-2.8,1-5.4,2.6-7.9,4.8c-2.5,2.1-4.4,4.6-5.8,7.4
		c-1.4,2.8-2.1,6.1-2.1,9.8v51.7h-14.6V436.1z"/>
	<path class="st0" d="M2125.5,400.9h15.9v17.3h-15.9V400.9z M2126,434.6h14.9v88.5H2126V434.6z"/>
	<path class="st0" d="M2162.3,435.6h12.4V449c3.7-5.8,7.7-9.9,12.1-12.4c4.4-2.5,9.1-3.7,14-3.7c8.5,0,14.7,2.7,18.8,8.1
		s6.1,13.4,6.1,23.9v58.2h-12.5v-55.3c0-8.1-1.3-13.8-3.7-17.2c-2.5-3.3-6.3-5-11.5-5c-2.8,0-5.5,0.6-8.3,1.7
		c-2.7,1.1-5.2,2.9-7.4,5.4c-2.4,2.5-4.2,5.1-5.5,7.9c-1.2,2.8-1.9,6.3-1.9,10.7v51.8h-12.5v-87.5L2162.3,435.6L2162.3,435.6z"/>
	<path class="st0" d="M2293.5,510.9c-3,3.9-6.7,7.2-11.3,10c-4.6,2.8-10.2,4.2-17,4.2c-4.1,0-7.9-0.5-11.4-1.6
		c-3.4-1.1-6.4-2.7-8.9-4.9s-4.4-5-5.8-8.3s-2.1-7.2-2.1-11.6c0-6,1.2-10.9,3.6-14.6c2.4-3.7,5.6-6.7,9.5-8.9
		c4-2.2,8.4-3.7,13.4-4.6s10.1-1.5,15.4-1.7l14.1-0.5V465c0-7.5-1.5-12.9-4.4-16.2c-3-3.3-7.8-4.9-14.4-4.9
		c-6.6,0-11.4,1.2-14.4,3.5c-3.1,2.3-5.1,5.5-6,9.6l-12.5-1.5c1.5-8.1,5-13.9,10.6-17.6s13.2-5.5,22.9-5.5c5.9,0,10.9,0.8,15,2.3
		s7.4,3.7,9.9,6.6c2.5,2.8,4.4,6.4,5.5,10.6s1.7,8.9,1.7,14.1v57.2h-13.3L2293.5,510.9L2293.5,510.9z M2293.2,478.9l-13.2,0.5
		c-5.6,0.2-10.3,0.8-14,1.7c-3.7,0.9-6.6,2.1-8.8,3.7c-2.2,1.5-3.7,3.4-4.6,5.7c-0.9,2.3-1.3,4.9-1.3,7.8c0,4.4,1.2,8,3.7,10.6
		c2.5,2.7,6.6,4,12.3,4c8.1,0,14.5-2.2,19-6.5s6.8-10.2,6.8-17.7L2293.2,478.9L2293.2,478.9z"/>
	<path class="st0" d="M2461,511.1c-3,3.9-6.7,7.2-11.3,10s-10.2,4.2-17,4.2c-4.1,0-7.9-0.5-11.4-1.6c-3.4-1.1-6.4-2.7-8.9-4.9
		s-4.4-5-5.8-8.3c-1.4-3.3-2.1-7.2-2.1-11.6c0-6,1.2-10.9,3.6-14.6c2.4-3.7,5.6-6.7,9.5-8.9c4-2.2,8.4-3.7,13.4-4.6
		s10.1-1.5,15.4-1.7l14.1-0.5v-3.4c0-7.5-1.5-12.9-4.4-16.2c-3-3.3-7.8-4.9-14.4-4.9s-11.4,1.2-14.4,3.5c-3.1,2.3-5.1,5.5-6,9.6
		l-12.5-1.5c1.5-8.1,5-13.9,10.6-17.6s13.2-5.5,22.9-5.5c5.9,0,10.9,0.8,15,2.3s7.4,3.7,9.9,6.6c2.5,2.8,4.4,6.4,5.5,10.6
		s1.7,8.9,1.7,14.1v57.2h-13.3L2461,511.1L2461,511.1z M2460.8,479.1l-13.2,0.5c-5.6,0.2-10.3,0.8-14,1.7c-3.7,0.9-6.6,2.1-8.8,3.7
		c-2.2,1.5-3.7,3.4-4.6,5.7c-0.9,2.3-1.3,4.9-1.3,7.8c0,4.4,1.2,8,3.7,10.6c2.5,2.7,6.6,4,12.3,4c8.1,0,14.5-2.2,19-6.5
		s6.8-10.2,6.8-17.7L2460.8,479.1L2460.8,479.1z"/>
	<path class="st0" d="M1811.4,321.1h9.6l27.4,70.7h-9.9l-7.4-19.7h-30.3l-7.4,19.7h-9.5L1811.4,321.1z M1828.3,364.2l-12.5-32.8
		l-12.3,32.8H1828.3z"/>
	<path class="st0" d="M1854.6,347.5h-7.9v-6.8h7.9v-14h8.6v14h13.6v6.8h-13.6v30c0,2.5,0.6,4.5,1.7,6s2.8,2.3,5.1,2.3
		c1.5,0,2.7-0.1,3.8-0.3c1.1-0.2,2.1-0.5,3-0.8l1.5,6.6c-1.3,0.5-2.8,0.8-4.3,1.1c-1.6,0.3-3.4,0.4-5.5,0.4c-2.9,0-5.2-0.4-7-1.3
		s-3.2-2.1-4.3-3.7c-1.1-1.6-1.8-3.5-2.1-5.6c-0.4-2.2-0.5-4.6-0.5-7.1L1854.6,347.5L1854.6,347.5z"/>
	<path class="st0" d="M2257.4,347.5h-7.9v-6.8h7.9v-14h8.6v14h13.6v6.8H2266v30c0,2.5,0.6,4.5,1.7,6c1.1,1.5,2.8,2.3,5.1,2.3
		c1.5,0,2.7-0.1,3.8-0.3c1.1-0.2,2.1-0.5,3-0.8l1.5,6.6c-1.3,0.5-2.8,0.8-4.3,1.1c-1.6,0.3-3.4,0.4-5.5,0.4c-2.9,0-5.2-0.4-7-1.3
		s-3.2-2.1-4.3-3.7s-1.8-3.5-2.1-5.6c-0.4-2.2-0.5-4.6-0.5-7.1V347.5L2257.4,347.5z"/>
	<path class="st0" d="M1918.8,377c-0.7,5.1-2.6,9.1-5.5,12.1c-3,2.9-7.2,4.4-12.8,4.4c-6.6,0-11.6-2.4-15.1-7.3s-5.2-11.7-5.2-20.4
		c0-4.6,0.5-8.6,1.5-12.2c1-3.5,2.4-6.5,4.2-8.9c1.8-2.4,4-4.2,6.5-5.5s5.2-1.9,8.2-1.9c3.3,0,6.2,0.6,8.6,1.9s4.3,3.1,5.9,5.4
		c1.5,2.3,2.7,5,3.4,8.1c0.7,3.1,1.1,6.6,1.1,10.3v4.5h-32c0,2.7,0.3,5.1,0.9,7.4s1.4,4.3,2.5,5.9c1.1,1.7,2.4,3,4,3.9
		c1.6,1,3.5,1.4,5.6,1.4c3.6,0,6.2-0.8,7.9-2.5c1.7-1.7,2.8-3.9,3.4-6.8h6.9V377z M1912.2,360.9c0-2.5-0.2-4.8-0.7-6.8
		c-0.4-2-1.1-3.8-2.1-5.3c-0.9-1.5-2.2-2.6-3.7-3.4s-3.3-1.2-5.4-1.2c-3.8,0-6.8,1.4-8.9,4.3s-3.4,7-3.8,12.5h24.6V360.9z"/>
	<path class="st0" d="M2319.8,377c-0.7,5.1-2.6,9.1-5.5,12.1c-3,2.9-7.2,4.4-12.8,4.4c-6.6,0-11.6-2.4-15.1-7.3s-5.2-11.7-5.2-20.4
		c0-4.6,0.5-8.6,1.5-12.2c1-3.5,2.4-6.5,4.2-8.9s4-4.2,6.5-5.5s5.2-1.9,8.2-1.9c3.3,0,6.2,0.6,8.6,1.9c2.4,1.3,4.3,3.1,5.9,5.4
		c1.5,2.3,2.7,5,3.4,8.1s1.1,6.6,1.1,10.3v4.5h-32c0,2.7,0.3,5.1,0.9,7.4s1.4,4.3,2.5,5.9c1.1,1.7,2.4,3,4,3.9
		c1.6,1,3.5,1.4,5.6,1.4c3.6,0,6.2-0.8,7.9-2.5s2.8-3.9,3.4-6.8h6.9L2319.8,377L2319.8,377z M2313.3,360.9c0-2.5-0.2-4.8-0.7-6.8
		c-0.4-2-1.1-3.8-2.1-5.3c-0.9-1.5-2.2-2.6-3.7-3.4s-3.3-1.2-5.4-1.2c-3.8,0-6.8,1.4-8.9,4.3c-2.1,2.9-3.4,7-3.8,12.5h24.6
		L2313.3,360.9L2313.3,360.9z"/>
	<path class="st0" d="M1930,339h7.7v8.1c2.3-3.5,4.8-6,7.5-7.5s5.6-2.2,8.6-2.2c5.2,0,9.1,1.6,11.6,4.9s3.8,8.1,3.8,14.4v35.2h-7.8
		v-33.4c0-4.9-0.8-8.4-2.3-10.4s-3.9-3-7.1-3c-1.7,0-3.4,0.3-5.1,1s-3.2,1.8-4.6,3.3c-1.5,1.5-2.6,3.1-3.4,4.8
		c-0.8,1.7-1.2,3.8-1.2,6.5V392h-7.8v-53H1930z"/>
	<path class="st0" d="M2107.4,339h7.7v8.1c2.3-3.5,4.8-6,7.5-7.5s5.6-2.2,8.6-2.2c5.2,0,9.1,1.6,11.6,4.9s3.8,8.1,3.8,14.4v35.2
		h-7.8v-33.4c0-4.9-0.8-8.4-2.3-10.4s-3.9-3-7.1-3c-1.7,0-3.4,0.3-5.1,1s-3.2,1.8-4.6,3.3c-1.5,1.5-2.6,3.1-3.4,4.8
		c-0.8,1.7-1.2,3.8-1.2,6.5V392h-7.8v-53H2107.4z"/>
	<path class="st0" d="M2203.5,339h7.7v8.1c2.3-3.5,4.8-6,7.5-7.5s5.6-2.2,8.6-2.2c5.2,0,9.1,1.6,11.6,4.9s3.8,8.1,3.8,14.4v35.2
		h-7.8v-33.4c0-4.9-0.8-8.4-2.3-10.4s-3.9-3-7.1-3c-1.7,0-3.4,0.3-5.1,1c-1.7,0.7-3.2,1.8-4.6,3.3c-1.5,1.5-2.6,3.1-3.4,4.8
		c-0.8,1.7-1.2,3.8-1.2,6.5V392h-7.8v-53H2203.5z"/>
	<path class="st0" d="M2017.8,373.9c-0.7,6.1-2.5,10.8-5.4,14.3s-7.1,5.2-12.4,5.2c-3.1,0-5.9-0.6-8.3-1.9s-4.4-3.2-6.1-5.6
		c-1.6-2.4-2.8-5.3-3.7-8.8c-0.8-3.4-1.2-7.3-1.2-11.6c0-4.2,0.5-8.1,1.4-11.5c0.9-3.5,2.2-6.4,3.9-8.9c1.7-2.5,3.8-4.4,6.2-5.7
		c2.4-1.4,5.2-2,8.3-2c5,0,8.8,1.5,11.5,4.6s4.4,7.4,5.2,12.8l-6.9,1.6c-0.3-1.7-0.6-3.3-1.1-4.7s-1.1-2.7-1.9-3.7
		c-0.8-1.1-1.8-1.9-2.9-2.5s-2.5-0.9-4.1-0.9c-2.2,0-4,0.5-5.6,1.6c-1.5,1.1-2.8,2.5-3.8,4.4s-1.7,4.1-2.2,6.6s-0.7,5.2-0.7,8.1
		s0.2,5.6,0.6,8.1s1.1,4.7,2.1,6.6s2.2,3.4,3.8,4.4c1.5,1.1,3.4,1.6,5.7,1.6c3.4,0,5.8-1.1,7.5-3.3c1.6-2.2,2.7-5.1,3.2-8.9
		L2017.8,373.9L2017.8,373.9z"/>
	<path class="st0" d="M2029.9,317.5h10.5V328h-10.5V317.5z M2030.2,338h9.8v53.8h-9.8V338z"/>
	<path class="st0" d="M2179,317.5h10.5V328H2179V317.5z M2179.5,338h9.8v53.8h-9.8V338z"/>
	<path class="st0" d="M2072.8,393.4c-3.3,0-6.2-0.6-8.8-1.9c-2.6-1.3-4.7-3.1-6.5-5.5s-3.1-5.3-4.1-8.8c-0.9-3.5-1.4-7.4-1.4-11.7
		c0-4.3,0.5-8.2,1.5-11.7s2.4-6.4,4.3-8.9c1.8-2.5,4-4.3,6.6-5.7c2.6-1.3,5.5-2,8.6-2c3.2,0,6.1,0.6,8.7,1.9
		c2.6,1.3,4.7,3.2,6.6,5.6c1.8,2.4,3.2,5.3,4.1,8.7c0.9,3.4,1.4,7.3,1.4,11.5c0,4.4-0.5,8.3-1.5,11.8s-2.4,6.4-4.2,8.9
		s-4,4.3-6.6,5.7S2076,393.4,2072.8,393.4z M2072.8,386c2.3,0,4.3-0.5,6-1.5s3-2.5,4.1-4.3s1.9-4,2.4-6.6s0.8-5.4,0.8-8.4
		s-0.3-5.8-0.8-8.3s-1.3-4.7-2.4-6.5c-1.1-1.8-2.5-3.2-4.1-4.2s-3.7-1.5-6-1.5s-4.3,0.5-6,1.5c-1.6,1-3,2.4-4.1,4.2
		c-1.1,1.8-1.9,4-2.4,6.5s-0.8,5.3-0.8,8.4s0.3,5.9,0.8,8.4s1.3,4.7,2.3,6.5c1.1,1.8,2.4,3.3,4.1,4.3
		C2068.5,385.5,2070.5,386,2072.8,386z"/>
	<path class="st0" d="M2338.7,396.2c0.7,3.2,2.1,5.4,4.2,6.8c2.1,1.4,5.3,2,9.8,2c5.4,0,9.2-1.5,11.2-4.6c2.1-3.1,3.1-7.5,3.1-13.4
		v-5.6c-2,2.8-4.4,5-7.2,6.6s-6.1,2.3-9.9,2.3c-3.7,0-6.9-0.7-9.7-2.1c-2.7-1.4-5-3.3-6.8-5.7c-1.8-2.4-3.1-5.2-4-8.4
		c-0.9-3.2-1.3-6.6-1.3-10.2c0-4,0.5-7.6,1.6-10.9s2.6-6.1,4.6-8.4s4.4-4.1,7.2-5.4s6-1.9,9.5-1.9c2.8,0,5.7,0.6,8.5,1.8
		c2.8,1.2,5.4,3.4,7.7,6.5v-6.7h8.5v43.9c0,4.5-0.3,8.6-0.9,12.2c-0.6,3.6-1.8,6.7-3.5,9.2s-4,4.5-7,5.8c-3,1.4-6.8,2-11.5,2
		c-6.7,0-12-1.2-15.8-3.7s-6.1-6.5-6.7-12.2L2338.7,396.2L2338.7,396.2z M2367.2,363.2c0-3.4-0.4-6.3-1.2-8.7
		c-0.8-2.3-1.9-4.2-3.3-5.7c-1.4-1.5-3-2.5-4.8-3.2c-1.8-0.6-3.7-1-5.7-1c-2.1,0-4.1,0.4-5.9,1.1s-3.4,1.8-4.8,3.4s-2.4,3.5-3.2,6
		c-0.8,2.4-1.1,5.4-1.1,8.8c0,3.5,0.4,6.5,1.2,8.9s1.9,4.4,3.2,5.9s2.9,2.6,4.6,3.2c1.7,0.7,3.5,1,5.3,1c2.2,0,4.3-0.4,6.2-1.1
		s3.5-1.9,4.9-3.3c1.4-1.5,2.5-3.4,3.3-5.6c0.8-2.3,1.2-4.9,1.2-8v-1.7L2367.2,363.2L2367.2,363.2z"/>
	<path class="st0" d="M2385.7,338.3h8.5v8.3c1.9-3,4.2-5.2,6.7-6.8c2.6-1.6,5.3-2.4,8.2-2.4c1.8,0,3.3,0.1,4.6,0.4l-1.1,8.4
		c-0.7-0.1-1.3-0.3-2-0.4s-1.4-0.2-2.2-0.2c-1.6,0-3.2,0.3-4.9,0.9s-3.2,1.6-4.7,3c-1.5,1.3-2.6,2.8-3.4,4.6c-0.8,1.7-1.2,3.7-1.2,6
		v31.8h-8.6L2385.7,338.3L2385.7,338.3z"/>
	<path class="st0" d="M2446,384.5c-1.7,2.3-3.9,4.3-6.5,6s-5.9,2.5-9.7,2.5c-2.4,0-4.5-0.3-6.5-1c-2-0.6-3.7-1.6-5.1-3
		c-1.4-1.3-2.5-3-3.3-5s-1.2-4.3-1.2-6.9c0-3.6,0.7-6.5,2-8.8c1.4-2.2,3.2-4,5.5-5.3s4.8-2.2,7.7-2.8c2.9-0.5,5.8-0.9,8.8-1l8.1-0.3
		v-2c0-4.5-0.9-7.7-2.5-9.7c-1.7-2-4.5-3-8.3-3s-6.5,0.7-8.3,2.1s-2.9,3.3-3.5,5.8l-7.2-0.9c0.8-4.8,2.9-8.4,6.1-10.6
		s7.6-3.3,13.1-3.3c3.4,0,6.3,0.5,8.6,1.4s4.2,2.2,5.7,3.9c1.5,1.7,2.5,3.8,3.1,6.3s1,5.3,1,8.5v34.3h-7.6L2446,384.5L2446,384.5z
		 M2445.8,365.3l-7.6,0.3c-3.2,0.1-5.9,0.5-8,1s-3.8,1.3-5.1,2.2c-1.2,0.9-2.1,2.1-2.6,3.4c-0.5,1.4-0.8,2.9-0.8,4.7
		c0,2.7,0.7,4.8,2.1,6.4s3.8,2.4,7.1,2.4c4.7,0,8.3-1.3,10.9-3.9c2.6-2.6,3.9-6.1,3.9-10.6L2445.8,365.3L2445.8,365.3z"/>
	<path class="st0" d="M2466.4,317.3h11.9v74.5h-11.9V317.3z"/>
</g>
<g id="gato_y_perro_2_copia_7">
	<path class="st1" d="M1344,368.2c-18.4-3.6-64.3-20.6-70.5-53.3c-0.3-1.4-0.9-2.7-2-3.6c-26.5-21.9-77.6-28.5-111.2-9.2
		c-24,13.8-12.5,94.4,5.6,100.1c16.1,5.1,40.5-40.9,47.2-54c0.2-0.5,1-0.2,0.9,0.3c-4.2,17.9-23.8,73.4-53.9,65
		c-15.5-4.3-35.7-52.3-21.9-93.1c0.1-0.3-0.3-0.5-0.5-0.2c-9.5,17.4-27.7,57.2-31.3,69.9c-0.5,1.6,0,3.2,1.3,4.3
		c21.8,19.7,80.3,56.7,126.4,59.8c0.8,0,1.4-0.5,1.4-1.3c0.2-4.6,2.1-11.6,3.9-14.5c0.3-0.5,0-1.2-0.6-1.3
		c-4.9-1.1-14.7-3.5-14.3-5.9c0.5-2.6,10.4,2.5,18.1,1.3c0.6-0.1,1.2-0.4,1.6-1c2.9-4.1,11.7-9.3,27.8-4.6
		c37.1,10.8,65.7-13.4,73.5-56.5C1345.7,369.3,1345,368.4,1344,368.2z M1270.4,345.5c-0.2,0.4-0.9,0.5-1.2,0.1
		c-2.8-3.7-10.3-4.4-16.4-1.9c-0.5,0.2-1-0.3-0.8-0.8C1257.4,330.2,1278.9,330.4,1270.4,345.5z"/>
	<rect x="1006.8" y="406" class="st2" width="10.8" height="10.4"/>
	<g>
		<path class="st3" d="M1026,487.1c-14.4,0-25-3.3-28.5-8.8c-1.6-2.5-1.6-5.5-0.1-8.6c-1.9-1.4-6-3.9-10.8-6.7
			c-11.4-6.9-20.3-12.3-21.8-14.5c-2.7-3.9-2.7-9.2-2.2-23.9c0.4-15,5.1-18.4,7.6-20.1l0.2-0.1c0.1-0.1,0.3-0.2,0.5-0.2
			c13.8-0.7,23.1-4.7,32.1-13.8c3.8-3.8,9.4-5.7,16.7-5.7c6,0,11.6,1.3,14.7,2l0.2,0.1c0.1,0,0.2,0,0.2,0c0.5,0,1-0.3,1.1-0.7
			c4-9.1,13.6-19,19.1-23.1c0.4-0.3,0.9-0.5,1.4-0.5c1.3,0,2.5,1.1,2.5,2.4c0,6,0.1,19.4,0.3,25c0,1.5-1.1,2.9-2.4,3.2
			c-0.6,0.1-1.2,0.2-1.9,0.2c-0.1,0-0.3,0-0.4,0c0.5,0.5,1,1.2,1.4,1.8c1.4-0.8,4.1-1.7,5.7-1.8c0.4,0,1.1-0.4,1.5-0.7
			c5.6-4.9,23.2-17.2,31.9-17.2c3.2,0,4.6,1.6,5.2,3c5.7,13.2-12.7,51.1-14,53.8c-0.5,3-0.2,20.6,0,25.8c0,0.1,0,0.2,0,0.3
			c-3.5,12-23.8,24.5-45.2,27.8C1036,486.7,1030.9,487.1,1026,487.1L1026,487.1z M1008.4,409.2c1.6,1.3,4.1,3.8,5.8,6.2
			c0.2-1.7-0.1-3.8-1-5.3c-0.6-1.1-1.5-1.6-2.5-1.6C1010.1,408.5,1009.3,408.7,1008.4,409.2z"/>
		<path class="st2" d="M1056.5,363.2c0.8,0,1.5,0.6,1.6,1.5c0,6.3,0.1,19.6,0.3,25c0,1-0.7,2.1-1.7,2.3c-1.2,0.3-2.7,0.1-4.2,0.5
			c0.5,0.3,2.2,1.9,3,3.4c0.1,0.1,0.2,0.2,0.3,0.2c0.1,0,0.1,0,0.2-0.1c1-0.8,4-1.8,5.8-2c0.6-0.1,1.5-0.5,2-0.9
			c5.3-4.6,22.7-17,31.3-17c2.1,0,3.6,0.7,4.3,2.4c5.4,12.5-12.1,49.4-14,53.1c-0.5,2.7-0.2,21.1,0,26.1
			c-3.4,11.6-23.4,23.9-44.4,27.1c-5.1,0.8-10.1,1.2-14.9,1.2c-18.5,0-32.8-5.8-27.7-16.1c0.2-0.4,0.1-1-0.3-1.2
			c-5.8-4.1-30-17.5-32.4-21c-2.5-3.6-2.5-8.3-2.1-23.3s5.1-17.9,7.4-19.6c12.9-0.7,23-4.2,32.7-14c4.2-4.2,10.2-5.4,16-5.4
			c6,0,11.8,1.3,14.7,2c0.1,0,0.3,0.1,0.5,0.1c0.8,0,1.7-0.5,2-1.3c4.1-9.1,13.6-18.8,18.8-22.8
			C1055.9,363.3,1056.2,363.2,1056.5,363.2 M1014.5,417.7c1.6-3.1,0.5-10.1-3.8-10.1c-1.1,0-2.4,0.5-3.9,1.6
			C1008.2,410,1012.8,414.3,1014.5,417.7 M1056.5,361.3L1056.5,361.3c-0.7,0-1.4,0.2-2,0.7c-5.2,3.9-15,13.7-19.4,23.5
			c0,0.1-0.2,0.2-0.3,0.2l-0.3-0.1c-3.1-0.7-8.8-2-14.9-2c-7.5,0-13.4,2-17.3,6c-8.8,8.9-17.9,12.8-31.5,13.5c-0.4,0-0.7,0.1-1,0.3
			l-0.2,0.1c-2.6,1.9-7.5,5.4-8,20.9c-0.5,14.9-0.5,20.3,2.4,24.5c1.7,2.4,9.8,7.4,22.1,14.8c4.3,2.6,8,4.8,10.1,6.2
			c-1.7,4-0.7,7,0.4,8.8c3.6,5.8,14.6,9.3,29.3,9.3c5,0,10.1-0.4,15.2-1.2c21.7-3.4,42.3-16.1,45.9-28.5c0.1-0.2,0.1-0.4,0.1-0.6
			c-0.2-5.7-0.5-22.4-0.1-25.4c1.8-3.7,19.8-40.9,14-54.4c-0.7-1.6-2.3-3.5-6-3.5c-9.7,0-28.2,13.6-32.5,17.4
			c-0.2,0.2-0.7,0.4-1,0.5c-0.7,0.1-1.6,0.3-2.5,0.5c0.8-0.8,1.3-1.9,1.2-3c-0.2-5.6-0.3-19.1-0.3-25
			C1059.9,362.8,1058.3,361.3,1056.5,361.3L1056.5,361.3L1056.5,361.3z M1010.2,409.5c0.2,0,0.4-0.1,0.6-0.1l0,0
			c0.4,0,1.1,0.1,1.7,1.1c0.3,0.6,0.6,1.3,0.7,2C1012.2,411.4,1011.1,410.3,1010.2,409.5L1010.2,409.5z"/>
	</g>
	<path class="st1" d="M1105.5,405.3c31.8,29.9,84.6,53.7,130,65.8c1.1,0.3,1.9,1.3,1.9,2.5c1,45.2,22.2,23.2,35.2,130
		c0.3,2.3-0.8,4.5-2.7,5.8c-1.1,0.7-2.3,1.5-3.4,2.2c-1.8,1.2-4.2,0.3-5-1.7c-24.6-65-87.4-92.3-127.5-111.3
		c-20.5-9.7-36.3-24.3-40.9-44.5c-3.3-14.8,0.8-26.4,9.8-48.1C1103.4,404.9,1104.7,404.6,1105.5,405.3z"/>
	<path class="st4" d="M1255.3,614.2c-33.3-93.2-138.7-97.4-160.4-140.3c-0.4-0.9-1.5-1-2.2-0.3c-20.1,21.8-63.9,36.9-98.9,18.6
		c-1.5-0.8-3.4-0.1-3.9,1.5c-10.1,31.2-6.7,56.3,8.8,75.4c20.7,25.5,85.1,59.1,102.1,67.3c51.5,24.8,113.4,9.9,152.1-15.1
		C1255.2,619.8,1256.3,616.9,1255.3,614.2z"/>
</g>
</svg>
